<svg xmlns="http://www.w3.org/2000/svg" width="500" height="135.889" viewBox="0 0 500 135.889" role="img" aria-labelledby="logo-title">
  <title id="logo-title">Resolution Applications</title>
  <defs>
    <linearGradient id="logo-gradient" x1="51.51" y1="52.551" x2="109.481" y2="110.521" gradientUnits="userSpaceOnUse">
      <stop offset="0" stop-color="#d2d3d4"/>
      <stop offset="1" stop-color="#2d2a2b"/>
    </linearGradient>
  </defs>
  <g>
    <circle cx="80.496" cy="81.536" r="40.991" fill="url(#logo-gradient)"/>
    <path d="m25.496,81.536c0-30.376,24.624-55,55-55,27.372,0,50.064,19.998,54.287,46.178.13-1.712.218-3.437.218-5.183C135,30.252,104.779.032,67.5.032S0,30.252,0,67.532s30.221,67.5,67.5,67.5c.071,0,.14-.005.211-.005-24.207-5.765-42.216-27.518-42.216-53.49Z" fill="#035966"/>
  </g>
  <g>
    <g>
      <path d="m172.832,105.808c-.206.56-.178.994.084,1.302.261.309.56.462.896.462h.224v.28h-5.348v-.28h.224c.392,0,.793-.135,1.204-.405.41-.271.765-.724,1.064-1.358h1.652Zm5.404-15.148l.196,1.933-6.412,15.176h-1.764l6.636-14.224c.205-.448.378-.836.518-1.162s.266-.648.378-.966.177-.569.196-.757h.252Zm3.304,10.668v.841h-7.42v-.841h7.42Zm-3.304-10.668l7.7,17.024h-2.212l-5.964-14.532.476-2.492Zm4.732,15.148h2.128c.28.635.625,1.088,1.036,1.358.41.271.802.405,1.176.405h.224v.28h-5.74v-.28h.224c.317,0,.606-.153.868-.462.261-.308.289-.742.084-1.302Z"/>
      <path d="m192.263,92.816h-.056c-.019-.429-.182-.784-.49-1.063-.308-.28-.686-.42-1.134-.42h-.392v-.28h2.436l-.364,1.764Zm0,13.244l.364,1.792h-2.436v-.28h.392c.448,0,.826-.148,1.134-.447s.471-.653.49-1.064h.056Zm1.736-15.008v16.8h-1.792v-16.8h1.792Zm-.084,15.008h.056c.019.411.182.766.49,1.064s.686.447,1.134.447h.392v.28h-2.436l.364-1.792Zm2.828-15.008c1.307,0,2.436.191,3.388.574s1.689.934,2.212,1.651c.522.719.784,1.573.784,2.562,0,1.063-.238,1.974-.714,2.729-.476.756-1.106,1.335-1.89,1.736-.784.401-1.652.598-2.604.588-.952-.009-1.904-.247-2.856-.714v-.28c.616.112,1.167.164,1.652.154s.999-.094,1.54-.252c.541-.158,1.05-.452,1.526-.882s.854-1.046,1.134-1.849c.074-.205.126-.447.154-.728s.042-.541.042-.784c0-1.139-.392-2.034-1.176-2.688-.784-.652-1.867-.979-3.248-.979h-2.744c-.094-.28-.196-.56-.308-.84h3.108Z"/>
      <path d="m209.007,92.816h-.056c-.019-.429-.182-.784-.49-1.063-.308-.28-.686-.42-1.134-.42h-.392v-.28h2.436l-.364,1.764Zm0,13.244l.364,1.792h-2.436v-.28h.392c.448,0,.826-.148,1.134-.447s.471-.653.49-1.064h.056Zm1.736-15.008v16.8h-1.792v-16.8h1.792Zm-.084,15.008h.056c.019.411.182.766.49,1.064s.686.447,1.134.447h.392v.28h-2.436l.364-1.792Zm2.828-15.008c1.307,0,2.436.191,3.388.574s1.689.934,2.212,1.651c.522.719.784,1.573.784,2.562,0,1.063-.238,1.974-.714,2.729-.476.756-1.106,1.335-1.89,1.736-.784.401-1.652.598-2.604.588-.952-.009-1.904-.247-2.856-.714v-.28c.616.112,1.167.164,1.652.154s.999-.094,1.54-.252c.541-.158,1.05-.452,1.526-.882s.854-1.046,1.134-1.849c.074-.205.126-.447.154-.728s.042-.541.042-.784c0-1.139-.392-2.034-1.176-2.688-.784-.652-1.867-.979-3.248-.979h-2.744c-.094-.28-.196-.56-.308-.84h3.108Z"/>
      <path d="m225.751,92.844h-.056c-.019-.43-.187-.788-.504-1.078-.317-.289-.709-.434-1.176-.434h-.336v-.28h2.072v1.792Zm0,13.216l.364,1.792h-2.436v-.28h.392c.466,0,.849-.148,1.148-.447.298-.299.457-.653.476-1.064h.056Zm1.736-15.008v16.8h-1.792v-16.8h1.792Zm-.084,1.792v-1.792h2.072v.28h-.336c-.448,0-.835.145-1.162.434-.327.29-.49.648-.49,1.078h-.084Zm7.616,14.14l-.056.868h-7.532v-.868h7.588Zm1.568-3.136l-1.54,4.004h-4.256l.952-.868c.933,0,1.685-.135,2.254-.406.569-.27,1.031-.644,1.386-1.119.354-.477.662-1.013.924-1.61h.28Z"/>
      <path d="m241.655,92.844h-.084c-.019-.43-.21-.788-.574-1.078-.364-.289-.808-.434-1.33-.434h-.392v-.28h2.38v1.792Zm0,13.216v1.792h-2.38v-.28h.392c.522,0,.966-.148,1.33-.447.364-.299.555-.653.574-1.064h.084Zm1.68-15.008v16.8h-1.764v-16.8h1.764Zm-.084,1.792v-1.792h2.38l-.028.28h-.364c-.523,0-.966.145-1.33.434-.364.29-.556.648-.574,1.078h-.084Zm0,13.216h.084c.018.411.21.766.574,1.064.364.299.807.447,1.33.447h.364l.028.28h-2.38v-1.792Z"/>
      <path d="m266.632,100.796l-.309,3.836c-.485.746-1.12,1.391-1.904,1.932-.783.542-1.67.957-2.659,1.246-.99.289-2.035.434-3.137.434-1.886-.019-3.523-.383-4.914-1.092s-2.459-1.717-3.206-3.023c-.747-1.307-1.12-2.865-1.12-4.677,0-1.829.373-3.396,1.12-4.703.747-1.307,1.815-2.314,3.206-3.024,1.391-.709,3.028-1.064,4.914-1.064,1.157,0,2.324.15,3.5.448,1.177.299,2.193.719,3.053,1.26l.615,3.948h-.252c-.41-1.717-1.236-2.949-2.478-3.696-1.242-.746-2.73-1.119-4.466-1.119-1.476,0-2.749.321-3.822.966-1.073.644-1.904,1.559-2.492,2.744s-.882,2.6-.882,4.241c0,1.606.294,3.001.882,4.187s1.423,2.1,2.506,2.744c1.083.644,2.361.976,3.836.994,1.4,0,2.665-.229,3.794-.687,1.13-.457,2.049-1.171,2.759-2.142.709-.971,1.11-2.222,1.204-3.752h.252Z"/>
      <path d="m272.987,105.808c-.205.56-.178.994.084,1.302.262.309.561.462.896.462h.224v.28h-5.348v-.28h.224c.392,0,.793-.135,1.204-.405.41-.271.765-.724,1.063-1.358h1.652Zm5.404-15.148l.195,1.933-6.411,15.176h-1.765l6.637-14.224c.205-.448.378-.836.518-1.162s.266-.648.378-.966.177-.569.196-.757h.252Zm3.304,10.668v.841h-7.42v-.841h7.42Zm-3.304-10.668l7.7,17.024h-2.212l-5.965-14.532.477-2.492Zm4.731,15.148h2.128c.28.635.626,1.088,1.036,1.358.411.271.803.405,1.177.405h.224v.28h-5.74v-.28h.225c.316,0,.605-.153.867-.462.262-.308.289-.742.084-1.302Z"/>
      <path d="m287.267,90.576c.168.057.425.122.771.196.345.075.732.136,1.161.182.43.047.831.07,1.204.07l-3.136.28v-.729Zm15.372.448v.84h-15.372v-.84h15.372Zm-13.664.784v.056c-.43.02-.77.164-1.021.435-.253.271-.379.602-.379.994v.447h-.308v-1.932h1.708Zm5.124,14.252v1.792h-2.044v-.28h.336c.448,0,.83-.148,1.148-.447.316-.299.484-.653.504-1.064h.056Zm1.764-14.924v16.716h-1.819v-16.716h1.819Zm-.084,14.924h.084c.019.411.187.766.504,1.064s.7.447,1.148.447h.308v.28h-2.044v-1.792Zm6.86-15.484v.729l-3.136-.28c.373,0,.77-.023,1.189-.07.42-.046.808-.106,1.162-.182.354-.074.616-.14.784-.196Zm0,1.232v1.932h-.308v-.447c0-.393-.126-.724-.378-.994-.253-.271-.593-.415-1.022-.435v-.056h1.708Z"/>
      <path d="m308.211,92.844h-.084c-.019-.43-.21-.788-.574-1.078-.363-.289-.808-.434-1.33-.434h-.392v-.28h2.38v1.792Zm0,13.216v1.792h-2.38v-.28h.392c.522,0,.967-.148,1.33-.447.364-.299.556-.653.574-1.064h.084Zm1.68-15.008v16.8h-1.764v-16.8h1.764Zm-.084,1.792v-1.792h2.381l-.028.28h-.364c-.522,0-.966.145-1.33.434-.364.29-.556.648-.574,1.078h-.084Zm0,13.216h.084c.019.411.21.766.574,1.064s.808.447,1.33.447h.364l.028.28h-2.381v-1.792Z"/>
      <path d="m325.375,90.66c1.307,0,2.534.21,3.682.631,1.148.42,2.156,1.021,3.024,1.806s1.544,1.713,2.03,2.786c.485,1.073.728,2.264.728,3.569s-.242,2.497-.728,3.57c-.486,1.073-1.162,2.002-2.03,2.786s-1.876,1.386-3.024,1.806c-1.147.42-2.375.63-3.682.63s-2.529-.21-3.668-.63-2.142-1.021-3.01-1.806-1.545-1.713-2.03-2.786-.728-2.263-.728-3.57.242-2.496.728-3.569,1.162-2.002,2.03-2.786,1.871-1.386,3.01-1.806c1.139-.421,2.361-.631,3.668-.631Zm0,16.744c1.381,0,2.632-.336,3.752-1.008s2.007-1.605,2.66-2.8.979-2.576.979-4.145c0-1.586-.326-2.972-.979-4.157s-1.54-2.114-2.66-2.786-2.371-1.008-3.752-1.008c-1.362,0-2.604.336-3.724,1.008s-2.007,1.601-2.66,2.786-.98,2.571-.98,4.157c0,1.568.327,2.95.98,4.145s1.54,2.128,2.66,2.8,2.361,1.008,3.724,1.008Z"/>
      <path d="m340.411,106.116v1.736h-2.1v-.28h.476c.429,0,.793-.14,1.092-.42s.448-.625.448-1.036h.084Zm-.056-15.483l1.203,1.567.028,15.652h-1.26v-13.72c0-.952-.084-2.118-.252-3.5h.28Zm0,0l15.512,14.616.28,2.995-15.513-14.699-.279-2.912Zm1.231,15.483c0,.411.154.756.462,1.036.309.28.667.42,1.078.42h.477v.28h-2.101v-1.736h.084Zm13.328-13.328c-.019-.41-.178-.756-.476-1.035-.299-.28-.663-.42-1.093-.42h-.476v-.28h2.1v1.735h-.056Zm1.232-1.735v13.607c0,.598.018,1.172.056,1.723.037.551.103,1.171.196,1.861h-.252l-1.232-1.483v-15.708h1.232Zm-.084,1.735v-1.735h2.1v.28h-.476c-.411,0-.771.14-1.078.42-.309.279-.462.625-.462,1.035h-.084Z"/>
      <path d="m366.954,90.66c.522,0,.98.02,1.372.057.393.037.732.079,1.022.126.289.047.541.103.756.168.214.065.406.126.574.182l.027,2.772h-.336c0-.766-.262-1.367-.784-1.807-.522-.438-1.334-.657-2.436-.657-.934,0-1.731.257-2.395.77-.662.514-.984,1.144-.966,1.89,0,.243.032.49.099.742.064.252.177.5.336.742.158.243.378.485.658.728l5.655,4.368c.43.355.747.808.952,1.358s.317,1.097.336,1.638c.019.822-.196,1.578-.644,2.269-.448.69-1.05,1.236-1.807,1.638-.756.401-1.591.602-2.506.602-.541,0-1.125-.047-1.75-.14-.625-.094-1.209-.238-1.75-.434-.541-.196-.989-.443-1.344-.742-.056-.262-.084-.593-.084-.994s.032-.826.098-1.274c.065-.447.154-.849.267-1.204h.336c-.075.841.046,1.56.363,2.156.317.598.784,1.05,1.4,1.358.616.308,1.334.453,2.156.434,1.157-.037,2.067-.331,2.729-.882.663-.551.994-1.283.994-2.198,0-.447-.079-.854-.237-1.218-.159-.364-.416-.704-.771-1.021l-5.6-4.312c-.523-.448-.878-.942-1.064-1.484-.187-.541-.28-1.054-.28-1.539,0-.766.205-1.456.616-2.072.41-.616.966-1.106,1.666-1.471.7-.363,1.479-.546,2.338-.546Zm3.696.252l.028.505h-1.988v-.505h1.96Z"/>
    </g>
    <g>
      <path d="m150.654,42.391h-.15c-.034-.866-.359-1.608-.975-2.225-.617-.616-1.358-.925-2.225-.925h-.65v-.5h4v3.65Zm0,27.7v3.65h-4v-.5h.65c.867,0,1.608-.308,2.225-.925s.941-1.358.975-2.226h.15Zm3.1-31.35v35h-3.25v-35h3.25Zm6.4,0c1.5,0,2.858.217,4.075.65,1.216.434,2.241,1.059,3.075,1.875.833.817,1.475,1.8,1.925,2.95.45,1.15.675,2.458.675,3.925,0,1.6-.375,3.134-1.125,4.6-.75,1.467-1.767,2.659-3.05,3.575-1.284.917-2.725,1.375-4.325,1.375.566.233,1.183.708,1.85,1.425.667.717,1.25,1.409,1.75,2.075.9,1.3,1.691,2.417,2.375,3.35.683.934,1.375,1.85,2.075,2.75.7.9,1.3,1.617,1.8,2.15.667.733,1.333,1.384,2,1.95.667.566,1.391,1.017,2.175,1.35.783.334,1.658.5,2.625.5v.5h-2.75c-1.534,0-2.858-.232-3.975-.7-1.117-.466-2.059-1.041-2.825-1.725-.767-.683-1.417-1.342-1.95-1.976-.1-.133-.375-.516-.825-1.149-.45-.633-.984-1.392-1.6-2.275-.617-.883-1.225-1.758-1.825-2.625-.6-.866-1.117-1.607-1.55-2.225-.434-.617-.684-.975-.75-1.075-.634-.833-1.333-1.6-2.1-2.3-.767-.7-1.6-1.05-2.5-1.05v-.5c1.033.034,1.917.034,2.65,0,.867-.033,1.816-.167,2.85-.4,1.033-.233,2-.716,2.9-1.45.9-.732,1.583-1.85,2.05-3.35.1-.367.183-.825.25-1.375.066-.55.083-1.092.05-1.625-.034-2.267-.608-4.075-1.725-5.425-1.117-1.35-2.608-2.075-4.475-2.175-.934-.066-1.892-.091-2.875-.075-.983.017-2.142.025-3.475.025,0-.033-.042-.175-.125-.425-.084-.25-.209-.625-.375-1.125h7.05Zm-6.55,31.35h.15c0,.867.316,1.609.95,2.226.633.617,1.383.925,2.25.925h.6v.5h-3.95v-3.65Z"/>
      <path d="m188.454,46.891h-.1c-.034-.766-.317-1.4-.85-1.9-.534-.5-1.217-.75-2.05-.75h-.7v-.5h4.35l-.65,3.15Zm0,23.65l.65,3.2h-4.35v-.5h.7c.833,0,1.516-.267,2.05-.8.533-.533.816-1.167.85-1.9h.1Zm3.1-26.8v30h-3.2v-30h3.2Zm13.4,0v1.55h-13.5v-1.55h13.5Zm-2.3,14.25v1.5h-11.2v-1.5h11.2Zm2.35,14.2l-.1,1.55h-13.45v-1.55h13.55Zm2.8-5.6l-2.75,7.15h-7.6l1.7-1.55c1.667,0,3.008-.241,4.025-.726,1.017-.482,1.842-1.149,2.475-2,.633-.85,1.183-1.808,1.65-2.875h.5Zm-2.85-23.65v1.3l-5.7-.5c1.033,0,2.133-.091,3.3-.275,1.167-.183,1.967-.358,2.4-.525Zm-2.3,12.3v2.85h-2.6v-.1c.7,0,1.217-.208,1.55-.625.333-.417.5-.908.5-1.475v-.65h.55Zm0,4.15v2.85h-.55v-.65c0-.566-.167-1.058-.5-1.475-.333-.417-.85-.625-1.55-.625v-.1h2.6Zm2.3-14.25v3.45h-.55v-.75c0-.7-.225-1.3-.675-1.8-.45-.5-1.059-.75-1.825-.75v-.15h3.05Z"/>
      <path d="m227.003,43.04c.933,0,1.75.034,2.45.1.7.067,1.308.142,1.825.225.516.083.966.184,1.35.3.383.117.725.225,1.025.325l.05,4.95h-.6c0-1.367-.467-2.441-1.4-3.225-.934-.783-2.383-1.175-4.35-1.175-1.667,0-3.092.459-4.275,1.375-1.184.917-1.758,2.042-1.725,3.375,0,.434.058.875.175,1.325.116.45.316.892.6,1.325.283.434.675.867,1.175,1.3l10.1,7.8c.766.634,1.333,1.442,1.7,2.425.367.983.566,1.958.6,2.925.033,1.467-.35,2.817-1.15,4.05s-1.875,2.208-3.225,2.925-2.842,1.075-4.475,1.075c-.967,0-2.008-.084-3.125-.25-1.117-.167-2.158-.425-3.125-.775-.967-.35-1.767-.791-2.4-1.325-.1-.466-.15-1.058-.15-1.774s.058-1.476.175-2.275c.117-.8.275-1.516.475-2.15h.6c-.134,1.5.083,2.784.65,3.85.566,1.067,1.4,1.875,2.5,2.425s2.383.809,3.85.775c2.066-.066,3.691-.592,4.875-1.575,1.183-.982,1.775-2.291,1.775-3.925,0-.8-.142-1.525-.425-2.175-.284-.65-.742-1.258-1.375-1.825l-10-7.7c-.934-.8-1.567-1.683-1.9-2.65-.334-.966-.5-1.883-.5-2.75,0-1.367.366-2.6,1.1-3.7.733-1.1,1.725-1.975,2.975-2.625s2.642-.975,4.175-.975Zm6.6.45l.05.9h-3.55v-.9h3.5Z"/>
      <path d="m263.752,43.04c2.334,0,4.525.375,6.576,1.125,2.049.75,3.85,1.825,5.4,3.225,1.549,1.4,2.758,3.059,3.625,4.975.865,1.917,1.299,4.042,1.299,6.375s-.434,4.458-1.299,6.375c-.867,1.917-2.076,3.575-3.625,4.975-1.551,1.4-3.352,2.476-5.4,3.226-2.051.75-4.242,1.125-6.576,1.125s-4.516-.375-6.549-1.125-3.826-1.825-5.375-3.226c-1.55-1.399-2.759-3.058-3.625-4.975-.867-1.917-1.3-4.042-1.3-6.375s.433-4.458,1.3-6.375c.867-1.917,2.075-3.575,3.625-4.975,1.549-1.4,3.342-2.475,5.375-3.225s4.217-1.125,6.549-1.125Zm0,29.9c2.467,0,4.701-.601,6.701-1.8,2-1.2,3.582-2.867,4.75-5,1.166-2.133,1.75-4.6,1.75-7.4,0-2.833-.584-5.308-1.75-7.425-1.168-2.117-2.75-3.775-4.75-4.975-2-1.2-4.234-1.8-6.701-1.8-2.434,0-4.648.6-6.648,1.8-2,1.2-3.584,2.858-4.75,4.975-1.168,2.117-1.75,4.592-1.75,7.425,0,2.8.583,5.267,1.75,7.4,1.166,2.133,2.75,3.8,4.75,5,2,1.199,4.215,1.8,6.648,1.8Z"/>
      <path d="m294.803,46.941h-.101c-.033-.767-.333-1.408-.899-1.925-.567-.516-1.268-.775-2.101-.775h-.6v-.5h3.7v3.2Zm0,23.6l.649,3.2h-4.35v-.5h.7c.833,0,1.517-.267,2.05-.8s.816-1.167.85-1.9h.101Zm3.1-26.8v30h-3.2v-30h3.2Zm-.149,3.2v-3.2h3.699v.5h-.6c-.8,0-1.492.259-2.075.775-.583.517-.875,1.159-.875,1.925h-.149Zm13.6,25.25l-.1,1.55h-13.45v-1.55h13.55Zm2.8-5.6l-2.75,7.15h-7.6l1.7-1.55c1.666,0,3.008-.241,4.024-.726,1.017-.482,1.842-1.149,2.476-2,.633-.85,1.183-1.808,1.649-2.875h.5Z"/>
      <path d="m325.103,43.741v2.65h-.1c-.034-.6-.275-1.108-.726-1.525-.45-.417-1.009-.625-1.675-.625h-.75v-.5h3.25Zm3.1,0v18.9c0,3.234.825,5.784,2.476,7.65,1.649,1.867,3.907,2.8,6.774,2.8,3.167,0,5.658-.883,7.476-2.649,1.816-1.767,2.725-4.183,2.725-7.25v-19.45h2.3v19.45c0,3.467-1.108,6.208-3.324,8.225-2.218,2.018-5.259,3.025-9.125,3.025-3.834,0-6.875-1-9.125-3s-3.375-4.733-3.375-8.2v-19.5h3.199Zm3.15,0v.5h-.75c-.634,0-1.192.208-1.675.625-.483.417-.726.925-.726,1.525h-.1v-2.65h3.25Zm16.4,0v2.65h-.101c0-.6-.233-1.108-.7-1.525-.467-.417-1.033-.625-1.699-.625h-.75v-.5h3.25Zm5.35,0v.5h-.75c-.634,0-1.184.208-1.65.625-.467.417-.717.925-.75,1.525h-.1v-2.65h3.25Z"/>
      <path d="m361.603,42.891c.3.1.758.217,1.375.35.616.134,1.308.242,2.075.325.767.083,1.482.125,2.149.125l-5.6.5v-1.3Zm27.45.8v1.5h-27.45v-1.5h27.45Zm-24.4,1.4v.1c-.767.033-1.375.292-1.825.775-.449.483-.675,1.075-.675,1.775v.8h-.55v-3.45h3.05Zm9.15,25.45v3.2h-3.65v-.5h.601c.8,0,1.482-.267,2.05-.8.566-.533.866-1.167.899-1.9h.101Zm3.149-26.65v29.85h-3.25v-29.85h3.25Zm-.149,26.65h.149c.033.733.333,1.367.9,1.9.566.533,1.25.8,2.05.8h.55v.5h-3.649v-3.2Zm12.25-27.65v1.3l-5.601-.5c.667,0,1.375-.042,2.125-.125.75-.083,1.441-.191,2.075-.325.633-.133,1.101-.25,1.4-.35Zm0,2.2v3.45h-.55v-.8c0-.7-.226-1.292-.676-1.775-.449-.483-1.059-.742-1.824-.775v-.1h3.05Z"/>
      <path d="m402.752,46.941h-.15c-.033-.767-.375-1.408-1.024-1.925-.65-.516-1.442-.775-2.375-.775h-.7v-.5h4.25v3.2Zm0,23.6v3.2h-4.25v-.5h.7c.933,0,1.725-.267,2.375-.8.649-.533.991-1.167,1.024-1.9h.15Zm3-26.8v30h-3.15v-30h3.15Zm-.15,3.2v-3.2h4.25l-.05.5h-.649c-.934,0-1.726.259-2.375.775-.65.517-.992,1.159-1.025,1.925h-.15Zm0,23.6h.15c.033.733.375,1.367,1.025,1.9.649.533,1.441.8,2.375.8h.649l.05.5h-4.25v-3.2Z"/>
      <path d="m437.151,43.04c2.333,0,4.525.375,6.575,1.125s3.851,1.825,5.4,3.225,2.758,3.059,3.625,4.975c.866,1.917,1.3,4.042,1.3,6.375s-.434,4.458-1.3,6.375c-.867,1.917-2.075,3.575-3.625,4.975-1.55,1.4-3.351,2.476-5.4,3.226s-4.242,1.125-6.575,1.125-4.517-.375-6.55-1.125-3.825-1.825-5.375-3.226c-1.55-1.399-2.759-3.058-3.625-4.975-.867-1.917-1.3-4.042-1.3-6.375s.433-4.458,1.3-6.375c.866-1.917,2.075-3.575,3.625-4.975s3.342-2.475,5.375-3.225,4.217-1.125,6.55-1.125Zm0,29.9c2.467,0,4.7-.601,6.7-1.8,2-1.2,3.583-2.867,4.75-5,1.167-2.133,1.75-4.6,1.75-7.4,0-2.833-.583-5.308-1.75-7.425-1.167-2.117-2.75-3.775-4.75-4.975-2-1.2-4.233-1.8-6.7-1.8-2.434,0-4.649.6-6.649,1.8-2,1.2-3.584,2.858-4.75,4.975-1.167,2.117-1.75,4.592-1.75,7.425,0,2.8.583,5.267,1.75,7.4,1.166,2.133,2.75,3.8,4.75,5,2,1.199,4.216,1.8,6.649,1.8Z"/>
      <path d="m467.752,70.641v3.1h-3.75v-.5h.85c.767,0,1.417-.25,1.95-.75s.8-1.116.8-1.85h.15Zm-.1-27.65l2.149,2.8.05,27.95h-2.25v-24.5c0-1.7-.149-3.783-.449-6.25h.5Zm0,0l27.699,26.1.5,5.351-27.699-26.25-.5-5.2Zm2.199,27.65c0,.733.275,1.35.825,1.85s1.191.75,1.925.75h.851v.5h-3.75v-3.1h.149Zm23.801-23.8c-.034-.733-.317-1.35-.851-1.85s-1.184-.75-1.95-.75h-.85v-.5h3.75v3.1h-.1Zm2.199-3.1v24.3c0,1.067.033,2.093.101,3.075.066.983.183,2.092.35,3.325h-.45l-2.199-2.65v-28.05h2.199Zm-.149,3.1v-3.1h3.75v.5h-.851c-.733,0-1.375.25-1.925.75s-.825,1.117-.825,1.85h-.149Z"/>
    </g>
  </g>
</svg>
